<svg xmlns="http://www.w3.org/2000/svg" width="1474.898" height="408.421"><g data-name="Group 77"><g data-name="Group 59"><g data-name="Group 58"><path data-name="Path 763" d="M440.29 286.255c-78.92 0-143.128-64.208-143.128-143.127V56.152a56.154 56.154 0 01112.308 0v86.976a30.82 30.82 0 0061.64 0V56.152a56.156 56.156 0 01112.311 0v86.976c0 78.919-64.21 143.127-143.131 143.127z" fill="#fff"/></g></g><g data-name="Group 61"><g data-name="Group 60"><path data-name="Path 764" d="M1034.61 286.255c-78.921 0-143.128-64.208-143.128-143.127V56.152a56.155 56.155 0 01112.31 0v86.976a30.821 30.821 0 0061.643 0V56.152a56.153 56.153 0 11112.306 0v86.976c-.003 78.919-64.203 143.127-143.131 143.127z" fill="#fff"/></g></g><g data-name="Group 63"><g data-name="Group 62"><path data-name="Path 765" d="M1331.773 286.255c-78.922 0-143.131-64.208-143.131-143.127S1252.851 0 1331.773 0s143.125 64.207 143.125 143.128-64.21 143.127-143.125 143.127zm0-173.948a30.82 30.82 0 1030.816 30.821 30.856 30.856 0 00-30.816-30.821z" fill="#fff"/></g></g><g data-name="Group 65"><g data-name="Group 64"><path data-name="Path 766" d="M824.427 286.255a56.151 56.151 0 01-56.155-56.153v-86.974a30.82 30.82 0 10-61.64 0v86.974a56.155 56.155 0 01-112.309 0v-86.974C594.323 64.206 658.532 0 737.452 0s143.129 64.207 143.129 143.128v86.974a56.154 56.154 0 01-56.154 56.153z" fill="#fff"/></g></g><g data-name="Group 68"><g data-name="Group 66"><path data-name="Path 767" d="M143.129 286.255C64.209 286.255 0 222.047 0 143.128S64.209 0 143.129 0s143.127 64.207 143.127 143.128-64.21 143.127-143.127 143.127zm0-173.948a30.82 30.82 0 1030.817 30.821 30.856 30.856 0 00-30.817-30.821z" fill="#fff"/></g><g data-name="Group 67"><path data-name="Path 768" d="M56.153 363.106A56.153 56.153 0 010 306.951V137.886a56.154 56.154 0 01112.307 0v169.066a56.153 56.153 0 01-56.154 56.154z" fill="#fff"/></g></g><g data-name="Group 69"><path data-name="Path 769" d="M1034.611 408.422a56.154 56.154 0 01-56.153-56.155v-1.208a56.155 56.155 0 01112.309 0v1.208a56.151 56.151 0 01-56.156 56.155z" fill="#fff"/></g></g></svg>